<svg width="1500px" height="465px" viewBox="0 0 1500 465" version="1.1"
    xmlns="http://www.w3.org/2000/svg"
    xmlns:xlink="http://www.w3.org/1999/xlink">
    <title>Group 2</title>
    <defs>
        <style>
            #LUNC {
                fill:var(--logo-primary-text);
            }

            #Foundation {
                fill:var(--logo-secondary-text);
            }
        </style>
        <path d="M232.253317,0 C360.522601,0 464.506173,103.982595 464.506173,232.252165 C464.506173,359.240407 362.591874,462.424083 236.09403,464.475058 L232.253317,464.506173 L232.253317,464.506173 C103.98265,464.506173 -9.17769358e-15,360.523117 -9.17769358e-15,232.252165 C-9.17769358e-15,105.265291 101.913396,2.08208061 228.412563,0.031115083 L232.253317,0" id="path-1"></path>
        <linearGradient x1="20.9630182%" y1="90.6502302%" x2="97.7608119%" y2="-16.8643032%" id="linearGradient-3">
            <stop stop-color="#087BED" offset="0%"></stop>
            <stop stop-color="#1C2A39" offset="100%"></stop>
        </linearGradient>
        <path d="M21.5624129,43.1239153 C9.65432248,43.1239153 0,33.4691375 0,21.561047 C0,9.70577213 9.56826952,0.0855976526 21.4035109,0 L21.7217703,0 C33.5565563,0.0855976526 43.1239153,9.70577213 43.1239153,21.561047 C43.1239153,33.4691375 33.4705034,43.1239153 21.5624129,43.1239153" id="path-4"></path>
        <linearGradient x1="199.678928%" y1="0.911269717%" x2="-8.59545579%" y2="69.2175391%" id="linearGradient-6">
            <stop stop-color="#BBC9D9" offset="0%"></stop>
            <stop stop-color="#F7F8F9" offset="100%"></stop>
        </linearGradient>
        <path d="M14.7855654,29.5706847 C6.61953693,29.5706847 0,22.9518934 0,14.7848963 C0,6.64287752 6.58028361,0.0383594619 14.7137497,0 L14.8573811,0 C22.9663139,0.0383594619 29.5323235,6.60451806 29.5706847,14.7130839 L29.5706847,14.8562628 C29.5323235,22.9906989 22.9275066,29.5706847 14.7855654,29.5706847" id="path-7"></path>
        <linearGradient x1="173.238351%" y1="-28.4631049%" x2="8.06103208%" y2="76.7008568%" id="linearGradient-9">
            <stop stop-color="#BBC9D9" offset="0%"></stop>
            <stop stop-color="#F7F8F9" offset="100%"></stop>
        </linearGradient>
        <path d="M11.7725257,23.4101254 L11.6371213,23.4101254 C5.2042171,23.3718501 0,18.1424884 0,11.7026705 C0,5.28199029 5.17646638,0.0621973494 11.5844906,0 L11.8246779,0 C18.2016022,0.0621973494 23.3579732,5.22936176 23.4101254,11.6069823 L23.4101254,11.7983587 C23.3579732,18.1951169 18.1738515,23.3718501 11.7725257,23.4101254" id="path-10"></path>
        <linearGradient x1="138.746526%" y1="-35.4586143%" x2="14.0641351%" y2="84.6086246%" id="linearGradient-12">
            <stop stop-color="#BBC9D9" offset="0%"></stop>
            <stop stop-color="#F7F8F9" offset="100%"></stop>
        </linearGradient>
        <path d="M14.8567045,29.5706847 L14.7139802,29.5706847 C6.58315697,29.5349983 0,22.9285442 0,14.783112 C0,6.6198365 6.62329817,0 14.7853424,0 C22.929546,0 29.5305435,6.57968924 29.5706847,14.7117391 L29.5706847,14.8544849 C29.5305435,22.9642307 22.9652271,29.5349983 14.8567045,29.5706847" id="path-13"></path>
        <linearGradient x1="102.096682%" y1="-50.1282245%" x2="26.939819%" y2="94.3306683%" id="linearGradient-15">
            <stop stop-color="#BBC9D9" offset="0%"></stop>
            <stop stop-color="#F7F8F9" offset="100%"></stop>
        </linearGradient>
        <path d="M6.20761298,12.3211186 L6.11350567,12.3211186 C2.73214767,12.2951009 0,9.54676385 0,6.16012569 C0,2.75700965 2.75730078,0 6.16034248,0 C9.56208317,0 12.3211186,2.75700965 12.3211186,6.16012569 C12.3211186,9.54676385 9.58766995,12.2951009 6.20761298,12.3211186" id="path-16"></path>
        <linearGradient x1="150.209426%" y1="-31.4172591%" x2="11.6328183%" y2="81.1645668%" id="linearGradient-18">
            <stop stop-color="#BBC9D9" offset="0%"></stop>
            <stop stop-color="#F7F8F9" offset="100%"></stop>
        </linearGradient>
        <path d="M12.3234867,0 C19.1293478,0 24.6422373,5.51656542 24.6422373,12.3211186 C24.6422373,19.1256719 19.1293478,24.6422373 12.3234867,24.6422373 C5.51762568,24.6422373 0,19.1256719 0,12.3211186 C0,5.51656542 5.51762568,0 12.3234867,0 Z" id="path-19"></path>
        <linearGradient x1="173.226984%" y1="-28.3626057%" x2="8.09340765%" y2="76.6485396%" id="linearGradient-21">
            <stop stop-color="#BBC9D9" offset="0%"></stop>
            <stop stop-color="#F7F8F9" offset="100%"></stop>
        </linearGradient>
        <path d="M195.450539,381.954678 C87.5054026,381.954678 0,295.014931 0,187.765526 C0,97.6897048 61.7317762,21.9493025 145.450554,0 L145.450092,0 C98.7779568,18.8132289 69.4750447,62.578257 58.4284128,109.033643 C55.4369054,107.767187 52.1446303,107.066253 48.68788,107.066253 C34.9454263,107.066253 23.8054687,118.135234 23.8054687,131.788539 C23.8054687,145.442761 34.9454263,156.510365 48.68788,156.510365 C50.3354036,156.510365 51.9441184,156.350624 53.5029363,156.046289 C54.0850675,178.714887 58.5757936,200.418151 66.3306124,220.511607 C59.5224498,223.135865 54.6967672,229.70638 54.6967672,237.398757 C54.6967672,247.401419 62.8553817,255.506461 72.9234789,255.506461 C76.4116458,255.506461 79.6706563,254.533324 82.4422475,252.844563 C95.8599088,274.445923 113.418094,293.238495 134.018607,308.129337 C130.885725,310.690709 128.886612,314.569488 128.886612,318.916476 C128.886612,326.623542 135.173167,332.870902 142.930296,332.870902 C149.544415,332.870902 155.090369,328.331123 156.58081,322.212291 C184.071261,336.873619 215.501724,345.191191 248.891104,345.191191 C251.187288,345.191191 253.451132,345.149879 255.691875,345.058073 C256.906958,351.319204 262.451064,356.042594 269.108612,356.042594 C276.653217,356.042594 282.770214,349.965074 282.770214,342.46457 C282.770214,342.175383 282.760974,341.890786 282.742494,341.606189 C311.890633,335.124725 335.393024,320.252245 354.848217,300.174396 C319.421377,349.666706 261.231361,381.954678 195.450539,381.954678" id="path-22"></path>
        <linearGradient x1="-91.0005462%" y1="168.326275%" x2="85.3268886%" y2="20.3541659%" id="linearGradient-24">
            <stop stop-color="#BBC9D9" offset="0%"></stop>
            <stop stop-color="#F7F8F9" offset="100%"></stop>
        </linearGradient>
        <path d="M10.5376382,20.9459017 L10.4077896,20.9459017 C4.67454862,20.9113093 0.0350685926,16.2702487 0,10.5378707 L0,10.4070832 C0.0350685926,4.65338117 4.71009111,0 10.4727139,0 C16.25761,0 20.9459017,4.68844739 20.9459017,10.472477 C20.9459017,16.2351825 16.2926786,20.9113093 10.5376382,20.9459017" id="path-25"></path>
        <linearGradient x1="173.277676%" y1="-28.6002896%" x2="8.11466323%" y2="76.7071626%" id="linearGradient-27">
            <stop stop-color="#BBC9D9" offset="0%"></stop>
            <stop stop-color="#F7F8F9" offset="100%"></stop>
        </linearGradient>
        <polygon id="path-28" points="0 259.259259 0 3.08641975 56.1571169 3.08641975 56.1571169 214.402729 163.580247 214.402729 163.580247 259.259259"></polygon>
        <path d="M427.469136,3.08641975 L427.469136,169.563569 C427.469136,188.569417 423.087063,205.228864 414.322917,219.54191 C405.558771,233.854956 392.896091,244.824381 376.334877,252.450184 C359.773663,260.075987 340.190329,263.888889 317.584877,263.888889 C283.49537,263.888889 257.021605,255.412515 238.16358,238.459768 C219.305556,221.507021 209.876543,198.306981 209.876543,168.859649 L209.876543,3.08641975 L265.906636,3.08641975 L265.906636,160.588586 C265.906636,180.415674 270.016718,194.96336 278.236883,204.231644 C286.457047,213.499928 300.056584,218.13407 319.035494,218.13407 C337.409979,218.13407 350.737526,213.470598 359.018133,204.143654 C367.29874,194.81671 371.439043,180.181034 371.439043,160.236626 L371.439043,3.08641975 L427.469136,3.08641975 Z" id="path-29"></path>
        <path d="M726.851852,259.259259 L655.595296,259.259259 L540.572023,65.4650318 L538.944335,65.4650318 C541.235155,99.6914988 542.380565,124.1056 542.380565,138.707335 L542.380565,259.259259 L492.283951,259.259259 L492.283951,3.08641975 L562.997944,3.08641975 L677.840363,194.953218 L679.106342,194.953218 C677.2978,161.661262 676.393529,138.123265 676.393529,124.339228 L676.393529,3.08641975 L726.851852,3.08641975 L726.851852,259.259259 Z" id="path-30"></path>
        <path d="M908.440832,45.2982923 C887.269026,45.2982923 870.876,52.99432 859.261753,68.3863754 C847.647505,83.7784308 841.840382,105.227816 841.840382,132.734531 C841.840382,189.971908 864.040532,218.590597 908.440832,218.590597 C927.07202,218.590597 949.635115,214.084177 976.130117,205.071339 L976.130117,250.720781 C954.353403,259.499519 930.036073,263.888889 903.178126,263.888889 C864.58495,263.888889 835.065404,252.564316 814.619489,229.91517 C794.173575,207.266024 783.950617,174.755427 783.950617,132.383381 C783.950617,105.696015 788.97136,82.3153077 799.012844,62.2412582 C809.054329,42.1672088 823.481402,26.7751534 842.294063,16.065092 C861.106724,5.35503068 883.155647,0 908.440832,0 C934.209943,0 960.100036,6.02806732 986.111111,18.084202 L967.96385,62.3290456 C958.043347,57.7641014 948.062353,53.7844065 938.020868,50.3899608 C927.979383,46.9955151 918.119371,45.2982923 908.440832,45.2982923 Z" id="path-31"></path>
        <polygon id="path-32" points="26.199906 133.662471 0 133.662471 0 8.07472512 71.9853154 8.07472512 71.9853154 29.8936632 26.199906 29.8936632 26.199906 62.278465 68.8069661 62.278465 68.8069661 84.0115017 26.199906 84.0115017"></polygon>
        <path d="M115.919093,85.4718244 C115.919093,94.9782383 117.479634,102.165316 120.600715,107.033058 C123.721797,111.900801 128.804292,114.334672 135.848202,114.334672 C142.834843,114.334672 147.860071,111.915117 150.923885,107.076009 C153.987699,102.236901 155.519606,95.0355059 155.519606,85.4718244 C155.519606,75.9654104 153.973382,68.8355999 150.880934,64.0823929 C147.788487,59.329186 142.720308,56.9525825 135.676399,56.9525825 C128.689757,56.9525825 123.650213,59.3148691 120.557765,64.0394423 C117.465317,68.7640155 115.919093,75.9081428 115.919093,85.4718244 Z M182.320822,85.4718244 C182.320822,101.105867 178.197558,113.332489 169.95103,122.151693 C161.704502,130.970896 150.222358,135.380498 135.504596,135.380498 C126.28452,135.380498 118.152527,133.361816 111.108618,129.324454 C104.064709,125.287091 98.6529252,119.488751 94.8732667,111.929434 C91.0936081,104.370117 89.2037788,95.5509139 89.2037788,85.4718244 C89.2037788,69.7805146 93.2984089,57.5825256 101.487669,48.8778573 C109.676929,40.1731891 121.187708,35.820855 136.020004,35.820855 C145.24008,35.820855 153.372073,37.8252194 160.415982,41.8339482 C167.459891,45.842677 172.871675,51.5980662 176.651334,59.1001157 C180.430992,66.6021653 182.320822,75.3927349 182.320822,85.4718244 Z" id="path-33"></path>
        <path d="M272.555416,133.662471 L269.033462,121.378581 L267.659041,121.378581 C264.85293,125.84545 260.872835,129.29582 255.718756,131.729691 C250.564676,134.163562 244.694751,135.380498 238.108983,135.380498 C226.827275,135.380498 218.323043,132.359634 212.596287,126.317907 C206.869532,120.27618 204.006154,111.585829 204.006154,100.246853 L204.006154,37.624783 L230.20606,37.624783 L230.20606,93.7183521 C230.20606,100.647726 231.437313,105.844757 233.899817,109.309444 C236.362322,112.774131 240.28515,114.506474 245.6683,114.506474 C252.998547,114.506474 258.295795,112.058286 261.560046,107.16191 C264.824297,102.265535 266.456422,94.1478588 266.456422,82.8088831 L266.456422,37.624783 L292.656328,37.624783 L292.656328,133.662471 L272.555416,133.662471 Z" id="path-34"></path>
        <path d="M409.348533,133.662471 L383.148627,133.662471 L383.148627,77.5689019 C383.148627,70.6395279 381.917374,65.4424973 379.454869,61.9778103 C376.992365,58.5131233 373.069537,56.7807798 367.686387,56.7807798 C360.35614,56.7807798 355.058891,59.2289677 351.794641,64.1253436 C348.53039,69.0217195 346.898265,77.1393953 346.898265,88.4783709 L346.898265,133.662471 L320.698359,133.662471 L320.698359,37.624783 L340.713369,37.624783 L344.235324,49.9086733 L345.695646,49.9086733 C348.616292,45.2700014 352.639337,41.7623638 357.764783,39.3857603 C362.890229,37.0091568 368.717203,35.820855 375.245704,35.820855 C386.412877,35.820855 394.888475,38.8417185 400.672498,44.8834455 C406.456521,50.9251724 409.348533,59.6441575 409.348533,71.0404008 L409.348533,133.662471 Z" id="path-35"></path>
        <path d="M467.284227,135.380498 C456.002519,135.380498 447.140365,130.99953 440.697765,122.237594 C434.255165,113.475658 431.033865,101.334937 431.033865,85.8154297 C431.033865,70.0668523 434.312433,57.7972789 440.869568,49.0067093 C447.426703,40.2161398 456.460659,35.820855 467.971438,35.820855 C480.054891,35.820855 489.274968,40.5167945 495.631666,49.9086733 L496.490679,49.9086733 C495.173526,42.7502291 494.514949,36.3648968 494.514949,30.7526765 L494.514949,0 L520.800756,0 L520.800756,133.662471 L500.699845,133.662471 L495.631666,121.206778 L494.514949,121.206778 C488.559123,130.655924 479.482216,135.380498 467.284227,135.380498 Z M476.475669,114.506474 C483.175973,114.506474 488.086666,112.559377 491.207748,108.665184 C494.328829,104.77099 496.032539,98.1565876 496.318877,88.8219763 L496.318877,85.9872323 C496.318877,75.6790726 494.729702,68.2915582 491.551353,63.8246889 C488.373004,59.3578197 483.204607,57.1243851 476.046163,57.1243851 C470.204872,57.1243851 465.666419,59.6012068 462.430802,64.5548503 C459.195185,69.5084937 457.577377,76.7098886 457.577377,86.159035 C457.577377,95.6081814 459.209502,102.695041 462.473752,107.419614 C465.738003,112.144188 470.405309,114.506474 476.475669,114.506474 Z" id="path-36"></path>
        <path d="M609.746831,133.662471 L604.678652,120.605469 L603.991442,120.605469 C599.58184,126.160421 595.043386,130.011664 590.376081,132.159198 C585.708775,134.306731 579.624098,135.380498 572.122048,135.380498 C562.901972,135.380498 555.643309,132.74619 550.346061,127.477575 C545.048812,122.20896 542.400187,114.706911 542.400187,104.971427 C542.400187,94.7778019 545.965093,87.2614354 553.094903,82.4223271 C560.224714,77.5832188 570.976697,74.9059606 585.350853,74.3905527 L602.015711,73.8751447 L602.015711,69.6659795 C602.015711,59.9304953 597.033434,55.0627532 587.06888,55.0627532 C579.395027,55.0627532 570.375388,57.3820891 560.00996,62.020761 L551.333926,44.3250868 C562.386564,38.5410639 574.64182,35.6490524 588.099696,35.6490524 C600.984895,35.6490524 610.863548,38.4551625 617.735655,44.0673828 C624.607761,49.6796031 628.043814,58.2124687 628.043814,69.6659795 L628.043814,133.662471 L609.746831,133.662471 Z M602.015711,89.1655816 L591.879354,89.5091869 C584.262769,89.7382571 578.593282,91.1126784 574.870891,93.6324508 C571.1485,96.1522232 569.287304,99.9891493 569.287304,105.143229 C569.287304,112.530744 573.525103,116.224501 582.000701,116.224501 C588.071062,116.224501 592.924487,114.47784 596.560977,110.98452 C600.197466,107.491199 602.015711,102.852527 602.015711,97.0685041 L602.015711,89.1655816 Z" id="path-37"></path>
        <path d="M696.029965,114.506474 C700.611369,114.506474 706.109054,113.504292 712.52302,111.499928 L712.52302,130.99953 C705.994519,133.920175 697.977061,135.380498 688.470647,135.380498 C677.990685,135.380498 670.359783,132.731873 665.577943,127.434625 C660.796102,122.137376 658.405182,114.191503 658.405182,103.597005 L658.405182,57.2961878 L645.863587,57.2961878 L645.863587,46.2149161 L660.295011,37.4529803 L667.854328,17.1802662 L684.605088,17.1802662 L684.605088,37.624783 L711.492204,37.624783 L711.492204,57.2961878 L684.605088,57.2961878 L684.605088,103.597005 C684.605088,107.319396 685.65022,110.068239 687.740486,111.843533 C689.830752,113.618827 692.593911,114.506474 696.029965,114.506474 Z" id="path-38"></path>
        <path d="M731.373609,12.7992983 C731.373609,4.26643277 736.126816,0 745.63323,0 C755.139644,0 759.892851,4.26643277 759.892851,12.7992983 C759.892851,16.8652947 758.704549,20.029327 756.327945,22.2913954 C753.951342,24.5534638 750.386437,25.684498 745.63323,25.684498 C736.126816,25.684498 731.373609,21.3894314 731.373609,12.7992983 Z M758.690232,133.662471 L732.490326,133.662471 L732.490326,37.624783 L758.690232,37.624783 L758.690232,133.662471 Z" id="path-39"></path>
        <path d="M807.606287,85.4718244 C807.606287,94.9782383 809.166827,102.165316 812.287909,107.033058 C815.408991,111.900801 820.491486,114.334672 827.535395,114.334672 C834.522037,114.334672 839.547265,111.915117 842.611079,107.076009 C845.674893,102.236901 847.2068,95.0355059 847.2068,85.4718244 C847.2068,75.9654104 845.660576,68.8355999 842.568128,64.0823929 C839.47568,59.329186 834.407502,56.9525825 827.363593,56.9525825 C820.376951,56.9525825 815.337406,59.3148691 812.244959,64.0394423 C809.152511,68.7640155 807.606287,75.9081428 807.606287,85.4718244 Z M874.008016,85.4718244 C874.008016,101.105867 869.884752,113.332489 861.638224,122.151693 C853.391696,130.970896 841.909551,135.380498 827.19179,135.380498 C817.971714,135.380498 809.839721,133.361816 802.795812,129.324454 C795.751903,125.287091 790.340119,119.488751 786.560461,111.929434 C782.780802,104.370117 780.890973,95.5509139 780.890973,85.4718244 C780.890973,69.7805146 784.985603,57.5825256 793.174863,48.8778573 C801.364123,40.1731891 812.874902,35.820855 827.707198,35.820855 C836.927274,35.820855 845.059267,37.8252194 852.103176,41.8339482 C859.147085,45.842677 864.558869,51.5980662 868.338528,59.1001157 C872.118186,66.6021653 874.008016,75.3927349 874.008016,85.4718244 Z" id="path-40"></path>
        <path d="M984.85893,133.662471 L958.659024,133.662471 L958.659024,77.5689019 C958.659024,70.6395279 957.427771,65.4424973 954.965267,61.9778103 C952.502762,58.5131233 948.579934,56.7807798 943.196784,56.7807798 C935.866537,56.7807798 930.569289,59.2289677 927.305038,64.1253436 C924.040787,69.0217195 922.408662,77.1393953 922.408662,88.4783709 L922.408662,133.662471 L896.208756,133.662471 L896.208756,37.624783 L916.223766,37.624783 L919.745721,49.9086733 L921.206043,49.9086733 C924.126689,45.2700014 928.149734,41.7623638 933.27518,39.3857603 C938.400627,37.0091568 944.2276,35.820855 950.756101,35.820855 C961.923274,35.820855 970.398872,38.8417185 976.182895,44.8834455 C981.966918,50.9251724 984.85893,59.6441575 984.85893,71.0404008 L984.85893,133.662471 Z" id="path-41"></path>
    </defs>
    <g id="Page-1" stroke="none" stroke-width="1" fill="none" fill-rule="evenodd">
        <g id="Group-2">
            <g id="Logo">
                <g id="circle">
                    <mask id="mask-2" fill="white">
                        <use xlink:href="#path-1"></use>
                    </mask>
                    <g id="Clip-2"></g>
                    <path d="M232.253317,0 C360.522601,0 464.506173,103.982595 464.506173,232.252165 C464.506173,360.523117 360.522601,464.506173 232.253317,464.506173 C103.98265,464.506173 -9.17769358e-15,360.523117 -9.17769358e-15,232.252165 C-9.17769358e-15,103.982595 103.98265,0 232.253317,0" id="Fill-1" fill="url(#linearGradient-3)" mask="url(#mask-2)"></path>
                </g>
                <path d="M391.811573,343.298311 C356.384733,392.790622 298.194717,425.078593 232.413895,425.078593 C124.468759,425.078593 36.9633559,338.138846 36.9633559,230.889441 C36.9633559,140.81362 98.6951321,65.0732178 182.41391,43.1239153 C159.709409,74.8468244 146.358276,113.63967 146.358276,155.530949 C146.358276,262.778977 233.864603,349.720102 341.808354,349.720102 C359.092105,349.720102 375.849167,347.480049 391.811573,343.298311" id="Fill-4" fill="#FFFFFF"></path>
                <g id="Group-8" transform="translate(62.837705, 155.246095)">
                    <mask id="mask-5" fill="white">
                        <use xlink:href="#path-4"></use>
                    </mask>
                    <g id="Clip-7"></g>
                    <path d="M21.5624129,43.1239153 C9.65432248,43.1239153 0,33.4691375 0,21.561047 C0,9.70577213 9.56826952,0.0855976526 21.4035109,0 L21.7217703,0 C33.5565563,0.0855976526 43.1239153,9.70577213 43.1239153,21.561047 C43.1239153,33.4691375 33.4705034,43.1239153 21.5624129,43.1239153" id="Fill-6" fill="url(#linearGradient-6)" mask="url(#mask-5)"></path>
                </g>
                <g id="Group-12" transform="translate(94.872614, 267.368275)">
                    <mask id="mask-8" fill="white">
                        <use xlink:href="#path-7"></use>
                    </mask>
                    <g id="Clip-11"></g>
                    <path d="M14.7855654,29.5706847 C6.61953693,29.5706847 0,22.9518934 0,14.7848963 C0,6.64287752 6.58028361,0.0383594619 14.7137497,0 L14.8573811,0 C22.9663139,0.0383594619 29.5323235,6.60451806 29.5706847,14.7130839 L29.5706847,14.8562628 C29.5323235,22.9906989 22.9275066,29.5706847 14.7855654,29.5706847" id="Fill-10" fill="url(#linearGradient-9)" mask="url(#mask-8)"></path>
                    <path d="M29.5706847,14.8562628 L29.5706847,14.7130839 C29.5711308,14.73717 29.5711308,14.7608102 29.5711308,14.7848963 C29.5711308,14.8085365 29.5711308,14.8326226 29.5706847,14.8562628 M14.8573811,-4.05670506e-15 L14.7137497,-4.05670506e-15 C14.7378369,-4.05670506e-15 14.7614781,-0.000446040255 14.7855654,-0.000446040255 C14.8096527,-0.000446040255 14.8337399,-4.05670506e-15 14.8573811,-4.05670506e-15" id="Fill-9" fill="#FFFFFF" mask="url(#mask-8)"></path>
                </g>
                <g id="Group-17" transform="translate(170.031437, 353.616105)">
                    <mask id="mask-11" fill="white">
                        <use xlink:href="#path-10"></use>
                    </mask>
                    <g id="Clip-16"></g>
                    <path d="M11.7725257,23.4101254 L11.6371213,23.4101254 C5.2042171,23.3718501 0,18.1424884 0,11.7026705 C0,5.28199029 5.17646638,0.0621973494 11.5844906,0 L11.8246779,0 C18.2016022,0.0621973494 23.3579732,5.22936176 23.4101254,11.6069823 L23.4101254,11.7983587 C23.3579732,18.1951169 18.1738515,23.3718501 11.7725257,23.4101254" id="Fill-15" fill="url(#linearGradient-12)" mask="url(#mask-11)"></path>
                    <path d="M11.7045843,23.4101254 C11.6820966,23.4101254 11.6596089,23.4101254 11.6371213,23.4101254 L11.7725257,23.4101254 C11.750038,23.4101254 11.7270719,23.4101254 11.7045843,23.4101254" id="Fill-13" fill="#FFFFFF" mask="url(#mask-11)"></path>
                    <path d="M23.4101254,11.7983587 L23.4101254,11.6069823 C23.4101254,11.6404732 23.4101254,11.6691796 23.4101254,11.7026705 C23.4101254,11.7361614 23.4101254,11.7696523 23.4101254,11.7983587 M11.8246779,5.97711181e-14 L11.5844906,5.97711181e-14 C11.6246813,5.97711181e-14 11.6643936,5.97711181e-14 11.7045843,5.97711181e-14 C11.7447749,5.97711181e-14 11.7844872,5.97711181e-14 11.8246779,5.97711181e-14" id="Fill-14" fill="#FFFFFF" mask="url(#mask-11)"></path>
                </g>
                <g id="Group-21" transform="translate(243.958149, 348.687658)">
                    <mask id="mask-14" fill="white">
                        <use xlink:href="#path-13"></use>
                    </mask>
                    <g id="Clip-20"></g>
                    <path d="M14.8567045,29.5706847 L14.7139802,29.5706847 C6.58315697,29.5349983 0,22.9285442 0,14.783112 C0,6.6198365 6.62329817,0 14.7853424,0 C22.929546,0 29.5305435,6.57968924 29.5706847,14.7117391 L29.5706847,14.8544849 C29.5305435,22.9642307 22.9652271,29.5349983 14.8567045,29.5706847" id="Fill-19" fill="url(#linearGradient-15)" mask="url(#mask-14)"></path>
                    <path d="M14.7853424,29.5706847 C14.7630417,29.5706847 14.740741,29.5706847 14.7139802,29.5706847 L14.8567045,29.5706847 C14.8344038,29.5706847 14.8121032,29.5706847 14.7853424,29.5706847 M29.5706847,14.8544849 L29.5706847,14.7117391 C29.5706847,14.7385039 29.5706847,14.7608079 29.5706847,14.783112 C29.5706847,14.8098768 29.5706847,14.8321808 29.5706847,14.8544849" id="Fill-18" fill="#FFFFFF" mask="url(#mask-14)"></path>
                </g>
                <g id="Group-25" transform="translate(146.621312, 287.082064)">
                    <mask id="mask-17" fill="white">
                        <use xlink:href="#path-16"></use>
                    </mask>
                    <g id="Clip-24"></g>
                    <path d="M6.20761298,12.3211186 L6.11350567,12.3211186 C2.73214767,12.2951009 0,9.54676385 0,6.16012569 C0,2.75700965 2.75730078,0 6.16034248,0 C9.56208317,0 12.3211186,2.75700965 12.3211186,6.16012569 C12.3211186,9.54676385 9.58766995,12.2951009 6.20761298,12.3211186" id="Fill-23" fill="url(#linearGradient-18)" mask="url(#mask-17)"></path>
                    <path d="M6.16034248,12.3211186 C6.14473021,12.3211186 6.12911794,12.3211186 6.11350567,12.3211186 L6.20761298,12.3211186 C6.1920007,12.3211186 6.17638843,12.3211186 6.16034248,12.3211186" id="Fill-22" fill="#FFFFFF" mask="url(#mask-17)"></path>
                </g>
                <g id="Group-28" transform="translate(292.010512, 375.794119)">
                    <mask id="mask-20" fill="white">
                        <use xlink:href="#path-19"></use>
                    </mask>
                    <g id="Clip-27"></g>
                    <polygon id="Fill-26" fill="url(#linearGradient-21)" mask="url(#mask-20)" points="0 24.6422373 24.6422373 24.6422373 24.6422373 0 0 0"></polygon>
                </g>
                <g id="Group-33" transform="translate(36.963356, 43.123915)">
                    <mask id="mask-23" fill="white">
                        <use xlink:href="#path-22"></use>
                    </mask>
                    <g id="Clip-32"></g>
                    <path d="M195.450539,381.954678 C87.5054026,381.954678 0,295.014931 0,187.765526 C0,97.6897048 61.7317762,21.9493025 145.450554,0 L145.450092,0 C98.7779568,18.8132289 69.4750447,62.578257 58.4284128,109.033643 C55.4369054,107.767187 52.1446303,107.066253 48.68788,107.066253 C34.9454263,107.066253 23.8054687,118.135234 23.8054687,131.788539 C23.8054687,145.442761 34.9454263,156.510365 48.68788,156.510365 C50.3354036,156.510365 51.9441184,156.350624 53.5029363,156.046289 C54.0850675,178.714887 58.5757936,200.418151 66.3306124,220.511607 C59.5224498,223.135865 54.6967672,229.70638 54.6967672,237.398757 C54.6967672,247.401419 62.8553817,255.506461 72.9234789,255.506461 C76.4116458,255.506461 79.6706563,254.533324 82.4422475,252.844563 C95.8599088,274.445923 113.418094,293.238495 134.018607,308.129337 C130.885725,310.690709 128.886612,314.569488 128.886612,318.916476 C128.886612,326.623542 135.173167,332.870902 142.930296,332.870902 C149.544415,332.870902 155.090369,328.331123 156.58081,322.212291 C184.071261,336.873619 215.501724,345.191191 248.891104,345.191191 C251.187288,345.191191 253.451132,345.149879 255.691875,345.058073 C256.906958,351.319204 262.451064,356.042594 269.108612,356.042594 C276.653217,356.042594 282.770214,349.965074 282.770214,342.46457 C282.770214,342.175383 282.760974,341.890786 282.742494,341.606189 C311.890633,335.124725 335.393024,320.252245 354.848217,300.174396 C319.421377,349.666706 261.231361,381.954678 195.450539,381.954678" id="Fill-31" fill="url(#linearGradient-24)" mask="url(#mask-23)"></path>
                    <path d="M145.450092,-2.6229019e-14 L145.44963,-2.6229019e-14 C145.450554,-2.6229019e-14 145.450554,-2.6229019e-14 145.450554,-2.6229019e-14" id="Fill-29" fill="#FFFFFF" mask="url(#mask-23)"></path>
                    <line x1="354.848217" y1="300.174396" x2="354.848217" y2="300.174396" id="Fill-30" fill="#FFFFFF" mask="url(#mask-23)"></line>
                </g>
                <g id="Group-37" transform="translate(124.443298, 204.530569)">
                    <mask id="mask-26" fill="white">
                        <use xlink:href="#path-25"></use>
                    </mask>
                    <g id="Clip-36"></g>
                    <path d="M10.5376382,20.9459017 L10.4077896,20.9459017 C4.67454862,20.9113093 0.0350685926,16.2702487 0,10.5378707 L0,10.4070832 C0.0350685926,4.65338117 4.71009111,0 10.4727139,0 C16.25761,0 20.9459017,4.68844739 20.9459017,10.472477 C20.9459017,16.2351825 16.2926786,20.9113093 10.5376382,20.9459017" id="Fill-35" fill="url(#linearGradient-27)" mask="url(#mask-26)"></path>
                    <path d="M10.4727139,20.9463756 C10.4513884,20.9463756 10.429589,20.9463756 10.4077896,20.9459017 L10.5376382,20.9459017 C10.5163127,20.9463756 10.4945133,20.9463756 10.4727139,20.9463756 M-6.64013115e-14,10.5378707 C-6.64013115e-14,10.5155989 -0.0004738999,10.4942749 -0.0004738999,10.472477 C-0.0004738999,10.4506791 -6.64013115e-14,10.4288811 -6.64013115e-14,10.4070832 L-6.64013115e-14,10.5378707" id="Fill-34" fill="#FFFFFF" mask="url(#mask-26)"></path>
                </g>
                <g id="stars" transform="translate(187.281003, 40.659692)" fill="#FFFFFF">
                    <polyline id="Fill-38" points="53.0414068 69.2601498 79.019912 75.2006212 52.0136959 82.1739767 46.0962929 108.259389 39.1511789 81.1410927 13.1731345 75.2006212 40.1788899 68.2281913 46.0962929 42.1423163 53.0414068 69.2601498"></polyline>
                    <polyline id="Fill-39" points="188.671602 175.215448 201.875153 178.234968 188.146225 181.778797 185.141438 195.038307 181.611274 181.254025 168.407722 178.234968 182.132042 174.690677 185.141438 161.430704 188.671602 175.215448"></polyline>
                    <polyline id="Fill-40" points="77.0336187 234.240698 89.3753673 237.063545 76.5451103 240.375067 73.733883 252.766899 70.4341474 239.885002 58.0970074 237.063545 70.9272643 233.751097 73.733883 221.359265 77.0336187 234.240698"></polyline>
                    <path d="M131.663599,40.5397727 C134.479435,40.5397727 136.756068,42.8290546 136.756068,45.6537518 C136.756068,48.4779863 134.479435,50.7672682 131.663599,50.7672682 C128.852372,50.7672682 126.575739,48.4779863 126.575739,45.6537518 C126.575739,42.8290546 128.852372,40.5397727 131.663599,40.5397727" id="Fill-41"></path>
                    <path d="M21.8183497,163.993015 C26.2388894,163.993015 29.8206695,167.589599 29.8206695,172.027946 C29.8206695,176.466293 26.2388894,180.064265 21.8183497,180.064265 C17.3987317,180.064265 13.8155691,176.466293 13.8155691,172.027946 C13.8155691,167.589599 17.3987317,163.993015 21.8183497,163.993015" id="Fill-42"></path>
                    <path d="M142.940768,207.459293 C145.751996,207.459293 148.033238,209.747649 148.033238,212.572346 C148.033238,215.397044 145.751996,217.6854 142.940768,217.6854 C140.129541,217.6854 137.848299,215.397044 137.848299,212.572346 C137.848299,209.747649 140.129541,207.459293 142.940768,207.459293" id="Fill-43"></path>
                    <path d="M189.501144,110.312662 C190.902149,110.312662 192.040466,111.45337 192.040466,112.861554 C192.040466,114.268349 190.902149,115.409057 189.501144,115.409057 C188.100139,115.409057 186.966431,114.268349 186.966431,112.861554 C186.966431,111.45337 188.100139,110.312662 189.501144,110.312662" id="Fill-44"></path>
                    <path d="M105.113632,155.593891 C107.924859,155.593891 110.206101,157.883173 110.206101,160.707407 C110.206101,163.531642 107.924859,165.820924 105.113632,165.820924 C102.302404,165.820924 100.021162,163.531642 100.021162,160.707407 C100.021162,157.883173 102.302404,155.593891 105.113632,155.593891" id="Fill-45"></path>
                    <path d="M220.055959,229.391882 C221.456964,229.391882 222.590672,230.532589 222.590672,231.939385 C222.590672,233.347568 221.456964,234.487813 220.055959,234.487813 C218.654954,234.487813 217.516637,233.347568 217.516637,231.939385 C217.516637,230.532589 218.654954,229.391882 220.055959,229.391882" id="Fill-46"></path>
                    <path d="M134.212138,105.208864 C135.613143,105.208864 136.75146,106.349109 136.75146,107.756367 C136.75146,109.163625 135.613143,110.304795 134.212138,110.304795 C132.811133,110.304795 131.672816,109.163625 131.672816,107.756367 C131.672816,106.349109 132.811133,105.208864 134.212138,105.208864" id="Fill-47"></path>
                    <path d="M160.402638,276.855032 C163.213865,276.855032 165.495107,279.145702 165.495107,281.968548 C165.495107,284.791394 163.213865,287.082064 160.402638,287.082064 C157.59141,287.082064 155.310168,284.791394 155.310168,281.968548 C155.310168,279.145702 157.59141,276.855032 160.402638,276.855032" id="Fill-48"></path>
                    <path d="M232.794044,150.853361 C234.195049,150.853361 235.333366,151.994994 235.333366,153.401789 C235.333366,154.80951 234.195049,155.950218 232.794044,155.950218 C231.393039,155.950218 230.259331,154.80951 230.259331,153.401789 C230.259331,151.994994 231.393039,150.853361 232.794044,150.853361" id="Fill-49"></path>
                    <path d="M90.2095183,47.1239456 C91.6105234,47.1239456 92.7442315,48.2655787 92.7442315,49.6723741 C92.7442315,51.0805578 91.6105234,52.2208026 90.2095183,52.2208026 C88.8085133,52.2208026 87.6701967,51.0805578 87.6701967,49.6723741 C87.6701967,48.2655787 88.8085133,47.1239456 90.2095183,47.1239456" id="Fill-50"></path>
                    <path d="M54.9170945,0 C57.7283218,0 60.0095636,2.28835642 60.0095636,5.11305361 C60.0095636,7.9377508 57.7283218,10.22657 54.9170945,10.22657 C52.1058672,10.22657 49.8246254,7.9377508 49.8246254,5.11305361 C49.8246254,2.28835642 52.1058672,0 54.9170945,0" id="Fill-51"></path>
                    <path d="M86.9236084,115.789447 C88.3246135,115.789447 89.4629301,116.930154 89.4629301,118.336487 C89.4629301,119.745133 88.3246135,120.885378 86.9236084,120.885378 C85.5226034,120.885378 84.3888953,119.745133 84.3888953,118.336487 C84.3888953,116.930154 85.5226034,115.789447 86.9236084,115.789447" id="Fill-52"></path>
                    <path d="M2.53839998,105.562414 C3.93940505,105.562414 5.07495653,106.703121 5.07495653,108.111305 C5.07495653,109.518101 3.93940505,110.658345 2.53839998,110.658345 C1.13555148,110.658345 0,109.518101 0,108.111305 C0,106.703121 1.13555148,105.562414 2.53839998,105.562414" id="Fill-53"></path>
                    <path d="M167.67496,58.8109914 C169.075965,58.8109914 170.214282,59.9530872 170.214282,61.3598827 C170.214282,62.7680664 169.075965,63.9083111 167.67496,63.9083111 C166.273955,63.9083111 165.140247,62.7680664 165.140247,61.3598827 C165.140247,59.9530872 166.273955,58.8109914 167.67496,58.8109914" id="Fill-54"></path>
                    <path d="M117.478423,269.191699 C118.879428,269.191699 120.017745,270.33472 120.017745,271.741515 C120.017745,273.148311 118.879428,274.286704 117.478423,274.286704 C116.077418,274.286704 114.94371,273.148311 114.94371,271.741515 C114.94371,270.33472 116.077418,269.191699 117.478423,269.191699" id="Fill-55"></path>
                    <path d="M47.6401636,202.717837 C49.0411687,202.717837 50.1794853,203.858081 50.1794853,205.266728 C50.1794853,206.673523 49.0411687,207.814231 47.6401636,207.814231 C46.2391585,207.814231 45.1008419,206.673523 45.1008419,205.266728 C45.1008419,203.858081 46.2391585,202.717837 47.6401636,202.717837" id="Fill-56"></path>
                </g>
            </g>
            <g id="LUNC" transform="translate(513.888889, 0.000000)" fill-rule="nonzero">
                <g id="Path">
                    <use xlink:href="#path-28"></use>
                </g>
                <g id="Path">
                    <use xlink:href="#path-29"></use>
                </g>
                <g id="Path">
                    <use xlink:href="#path-30"></use>
                </g>
                <g id="Path">
                    <use xlink:href="#path-31"></use>
                </g>
            </g>
            <g id="Foundation" transform="translate(514.262635, 329.300492)" fill-rule="nonzero">
                <g id="Path">
                    <use xlink:href="#path-32"></use>
                </g>
                <g id="Shape">
                    <use xlink:href="#path-33"></use>
                </g>
                <g id="Path">
                    <use xlink:href="#path-34"></use>
                </g>
                <g id="Path">
                    <use xlink:href="#path-35"></use>
                </g>
                <g id="Shape">
                    <use xlink:href="#path-36"></use>
                </g>
                <g id="Shape">
                    <use xlink:href="#path-37"></use>
                </g>
                <g id="Path">
                    <use xlink:href="#path-38"></use>
                </g>
                <g id="Shape">
                    <use xlink:href="#path-39"></use>
                </g>
                <g id="Shape">
                    <use xlink:href="#path-40"></use>
                </g>
                <g id="Path">
                    <use xlink:href="#path-41"></use>
                </g>
            </g>
        </g>
    </g>
</svg>