<?xml version="1.0" encoding="UTF-8"?>
<svg width="100px" height="100px" viewBox="0 0 100 100" version="1.1" xmlns="http://www.w3.org/2000/svg" xmlns:xlink="http://www.w3.org/1999/xlink">
    <title>Group</title>
    <defs>
        <path d="M50.0000496,0 C77.6141679,0 100,22.3856219 100,49.9998017 C100,77.3381342 78.059646,99.5517627 50.8268875,99.9933014 L50.0000496,100 L50.0000496,100 C22.3856337,100 -1.97579583e-15,77.6142789 -1.97579583e-15,49.9998017 C-1.97579583e-15,22.6617637 21.9401596,0.448235294 49.1732029,0.0066985295 L50.0000496,0" id="path-1"></path>
        <linearGradient x1="20.9630182%" y1="90.6502302%" x2="97.7608119%" y2="-16.8643032%" id="linearGradient-3">
            <stop stop-color="#087BED" offset="0%"></stop>
            <stop stop-color="#1C2A39" offset="100%"></stop>
        </linearGradient>
        <path d="M4.64200783,9.28381963 C2.07840564,9.28381963 0,7.20531597 0,4.64171378 C0,2.08948184 2.05987995,0.0184276674 4.60779903,0 L4.67631466,0 C7.22413572,0.0184276674 9.28381963,2.08948184 9.28381963,4.64171378 C9.28381963,7.20531597 7.20561003,9.28381963 4.64200783,9.28381963" id="path-4"></path>
        <linearGradient x1="199.678928%" y1="0.911269717%" x2="-8.59545579%" y2="69.2175391%" id="linearGradient-6">
            <stop stop-color="#BBC9D9" offset="0%"></stop>
            <stop stop-color="#F7F8F9" offset="100%"></stop>
        </linearGradient>
        <path d="M3.18307189,6.36604775 C1.42506974,6.36604775 0,4.94113851 0,3.18292785 C0,1.43009456 1.4166192,0.00825811672 3.16761122,0 L3.19853255,0 C4.94424299,0.00825811672 6.35778925,1.42183645 6.36604775,3.16746789 L6.36604775,3.19829179 C6.35778925,4.94949265 4.93588847,6.36604775 3.18307189,6.36604775" id="path-7"></path>
        <linearGradient x1="173.238351%" y1="-28.4631049%" x2="8.06103208%" y2="76.7008568%" id="linearGradient-9">
            <stop stop-color="#BBC9D9" offset="0%"></stop>
            <stop stop-color="#F7F8F9" offset="100%"></stop>
        </linearGradient>
        <path d="M2.53441749,5.0397878 L2.50526731,5.0397878 C1.12037631,5.0315478 0,3.90575829 0,2.5193789 C0,1.1371195 1.11440206,0.0133899942 2.49393685,0 L2.54564494,0 C3.91848446,0.0133899942 5.02856034,1.12578951 5.0397878,2.49877891 L5.0397878,2.53997889 C5.02856034,3.91708829 3.91251021,5.0315478 2.53441749,5.0397878" id="path-10"></path>
        <linearGradient x1="138.746526%" y1="-35.4586143%" x2="14.0641351%" y2="84.6086246%" id="linearGradient-12">
            <stop stop-color="#BBC9D9" offset="0%"></stop>
            <stop stop-color="#F7F8F9" offset="100%"></stop>
        </linearGradient>
        <path d="M3.19838688,6.36604775 L3.16766086,6.36604775 C1.41723778,6.35836508 0,4.93611184 0,3.18254371 C0,1.42513424 1.42587947,0 3.18302387,0 C4.93632752,0 6.35740605,1.41649124 6.36604775,3.16717838 L6.36604775,3.19790903 C6.35740605,4.94379451 4.94400903,6.35836508 3.19838688,6.36604775" id="path-13"></path>
        <linearGradient x1="102.096682%" y1="-50.1282245%" x2="26.939819%" y2="94.3306683%" id="linearGradient-15">
            <stop stop-color="#BBC9D9" offset="0%"></stop>
            <stop stop-color="#F7F8F9" offset="100%"></stop>
        </linearGradient>
        <path d="M1.33638977,2.65251989 L1.31613012,2.65251989 C0.588183286,2.64691874 0,2.05525016 0,1.32616659 C0,0.593535633 0.593598306,0 1.32621327,0 C2.05854814,0 2.65251989,0.593535633 2.65251989,1.32616659 C2.65251989,2.05525016 2.06405652,2.64691874 1.33638977,2.65251989" id="path-16"></path>
        <linearGradient x1="150.209426%" y1="-31.4172591%" x2="11.6328183%" y2="81.1645668%" id="linearGradient-18">
            <stop stop-color="#BBC9D9" offset="0%"></stop>
            <stop stop-color="#F7F8F9" offset="100%"></stop>
        </linearGradient>
        <path d="M2.6530297,0 C4.11821174,0 5.30503979,1.1876194 5.30503979,2.65251989 C5.30503979,4.11742039 4.11821174,5.30503979 2.6530297,5.30503979 C1.18784766,5.30503979 0,4.11742039 0,2.65251989 C0,1.1876194 1.18784766,0 2.6530297,0 Z" id="path-19"></path>
        <linearGradient x1="173.226984%" y1="-28.3626057%" x2="8.09340765%" y2="76.6485396%" id="linearGradient-21">
            <stop stop-color="#BBC9D9" offset="0%"></stop>
            <stop stop-color="#F7F8F9" offset="100%"></stop>
        </linearGradient>
        <path d="M42.0770596,82.2281167 C18.8383724,82.2281167 0,63.5115199 0,40.4226115 C0,21.0308733 13.2897644,4.72529835 31.3129432,0 L31.3128438,0 C21.2651548,4.05015691 14.9567538,13.4719969 12.5786085,23.4730236 C11.9345896,23.2003779 11.2258207,23.049479 10.4816433,23.049479 C7.52313497,23.049479 5.12489823,25.4324358 5.12489823,28.3717518 C5.12489823,31.3112655 7.52313497,33.6939258 10.4816433,33.6939258 C10.8363261,33.6939258 11.1826541,33.6595363 11.5182401,33.5940183 C11.6435627,38.4741684 12.610337,43.1464989 14.2798129,47.4722661 C12.8141354,48.0372228 11.7752509,49.4517389 11.7752509,51.1077724 C11.7752509,53.2611692 13.5316569,55.0060422 15.699141,55.0060422 C16.4500819,55.0060422 17.1516895,54.7965428 17.7483642,54.4329823 C20.6369505,59.0833747 24.4169185,63.1290847 28.8518463,66.3348207 C28.1773919,66.8862389 27.7470182,67.7212719 27.7470182,68.6571017 C27.7470182,70.3162974 29.1004027,71.661244 30.770376,71.661244 C32.1942793,71.661244 33.3882256,70.6839096 33.7090912,69.3666327 C39.6273014,72.5229585 46.3937266,74.3135854 53.5818723,74.3135854 C54.0762003,74.3135854 54.5635659,74.3046915 55.0459584,74.2849274 C55.3075445,75.6328386 56.501093,76.6497013 57.9343458,76.6497013 C59.5585663,76.6497013 60.8754481,75.3413182 60.8754481,73.7265918 C60.8754481,73.6643349 60.8734589,73.6030662 60.8694804,73.5417975 C67.1445615,72.1464525 72.2042124,68.9446693 76.3925729,64.622262 C68.7657982,75.2770849 56.2385123,82.2281167 42.0770596,82.2281167" id="path-22"></path>
        <linearGradient x1="-91.0005462%" y1="168.326275%" x2="85.3268886%" y2="20.3541659%" id="linearGradient-24">
            <stop stop-color="#BBC9D9" offset="0%"></stop>
            <stop stop-color="#F7F8F9" offset="100%"></stop>
        </linearGradient>
        <path d="M2.26856795,4.50928382 L2.24061384,4.50928382 C1.00634801,4.5018367 0.0075496505,3.50269807 0,2.26861802 L0,2.24046177 C0.0075496505,1.00179103 1.01399968,0 2.2545909,0 C3.49997717,0 4.50928382,1.00934017 4.50928382,2.25453989 C4.50928382,3.49514893 3.50752682,4.5018367 2.26856795,4.50928382" id="path-25"></path>
        <linearGradient x1="173.277676%" y1="-28.6002896%" x2="8.11466323%" y2="76.7071626%" id="linearGradient-27">
            <stop stop-color="#BBC9D9" offset="0%"></stop>
            <stop stop-color="#F7F8F9" offset="100%"></stop>
        </linearGradient>
    </defs>
    <g id="Page-2" stroke="none" stroke-width="1" fill="none" fill-rule="evenodd">
        <g id="Logo">
            <g id="circle">
                <mask id="mask-2" fill="white">
                    <use xlink:href="#path-1"></use>
                </mask>
                <g id="Clip-2"></g>
                <path d="M50.0000496,0 C77.6141679,0 100,22.3856219 100,49.9998017 C100,77.6142789 77.6141679,100 50.0000496,100 C22.3856337,100 -1.97579583e-15,77.6142789 -1.97579583e-15,49.9998017 C-1.97579583e-15,22.3856219 22.3856337,0 50.0000496,0" id="Fill-1" fill="url(#linearGradient-3)" mask="url(#mask-2)"></path>
            </g>
            <path d="M84.3501326,73.9060816 C76.7233579,84.5609046 64.196072,91.5119363 50.0346193,91.5119363 C26.7959321,91.5119363 7.95755968,72.7953396 7.95755968,49.7064312 C7.95755968,30.314693 21.2473241,14.009118 39.2705029,9.28381963 C34.3826235,16.1132034 31.5083598,24.46462 31.5083598,33.4830748 C31.5083598,56.5716868 50.3469311,75.28858 73.58532,75.28858 C77.3062074,75.28858 80.9137076,74.8063361 84.3501326,73.9060816" id="Fill-4" fill="#FFFFFF"></path>
            <g id="Group-8" transform="translate(13.527851, 33.421751)">
                <mask id="mask-5" fill="white">
                    <use xlink:href="#path-4"></use>
                </mask>
                <g id="Clip-7"></g>
                <path d="M4.64200783,9.28381963 C2.07840564,9.28381963 0,7.20531597 0,4.64171378 C0,2.08948184 2.05987995,0.0184276674 4.60779903,0 L4.67631466,0 C7.22413572,0.0184276674 9.28381963,2.08948184 9.28381963,4.64171378 C9.28381963,7.20531597 7.20561003,9.28381963 4.64200783,9.28381963" id="Fill-6" fill="url(#linearGradient-6)" mask="url(#mask-5)"></path>
            </g>
            <g id="Group-12" transform="translate(20.424403, 57.559682)">
                <mask id="mask-8" fill="white">
                    <use xlink:href="#path-7"></use>
                </mask>
                <g id="Clip-11"></g>
                <path d="M3.18307189,6.36604775 C1.42506974,6.36604775 0,4.94113851 0,3.18292785 C0,1.43009456 1.4166192,0.00825811672 3.16761122,0 L3.19853255,0 C4.94424299,0.00825811672 6.35778925,1.42183645 6.36604775,3.16746789 L6.36604775,3.19829179 C6.35778925,4.94949265 4.93588847,6.36604775 3.18307189,6.36604775" id="Fill-10" fill="url(#linearGradient-9)" mask="url(#mask-8)"></path>
                <path d="M6.36803128,3.20091753 L6.36803128,3.16881753 C6.36813128,3.17421753 6.36813128,3.17951753 6.36813128,3.18491753 C6.36813128,3.19021753 6.36813128,3.19561753 6.36803128,3.20091753 M3.20115741,0.00198968118 L3.16895741,0.00198968118 C3.17435741,0.00198968118 3.17965741,0.00188968118 3.18505741,0.00188968118 C3.19045741,0.00188968118 3.19585741,0.00198968118 3.20115741,0.00198968118" id="Fill-9" fill="#FFFFFF" mask="url(#mask-8)"></path>
            </g>
            <g id="Group-17" transform="translate(36.604775, 76.127321)">
                <mask id="mask-11" fill="white">
                    <use xlink:href="#path-10"></use>
                </mask>
                <g id="Clip-16"></g>
                <path d="M2.53441749,5.0397878 L2.50526731,5.0397878 C1.12037631,5.0315478 0,3.90575829 0,2.5193789 C0,1.1371195 1.11440206,0.0133899942 2.49393685,0 L2.54564494,0 C3.91848446,0.0133899942 5.02856034,1.12578951 5.0397878,2.49877891 L5.0397878,2.53997889 C5.02856034,3.91708829 3.91251021,5.0315478 2.53441749,5.0397878" id="Fill-15" fill="url(#linearGradient-12)" mask="url(#mask-11)"></path>
                <path d="M2.5197909,5.0397878 C2.5149497,5.0397878 2.5101085,5.0397878 2.50526731,5.0397878 L2.53441749,5.0397878 C2.52957629,5.0397878 2.52463209,5.0397878 2.5197909,5.0397878" id="Fill-13" fill="#FFFFFF" mask="url(#mask-11)"></path>
                <path d="M5.0397878,2.53997889 L5.0397878,2.49877891 C5.0397878,2.50598891 5.0397878,2.5121689 5.0397878,2.5193789 C5.0397878,2.5265889 5.0397878,2.53379889 5.0397878,2.53997889 M2.54564494,1.28629573e-14 L2.49393685,1.28629573e-14 C2.5025892,1.28629573e-14 2.51113855,1.28629573e-14 2.5197909,1.28629573e-14 C2.52844324,1.28629573e-14 2.53699259,1.28629573e-14 2.54564494,1.28629573e-14" id="Fill-14" fill="#FFFFFF" mask="url(#mask-11)"></path>
            </g>
            <g id="Group-21" transform="translate(52.519894, 75.066313)">
                <mask id="mask-14" fill="white">
                    <use xlink:href="#path-13"></use>
                </mask>
                <g id="Clip-20"></g>
                <path d="M3.19838688,6.36604775 L3.16766086,6.36604775 C1.41723778,6.35836508 0,4.93611184 0,3.18254371 C0,1.42513424 1.42587947,0 3.18302387,0 C4.93632752,0 6.35740605,1.41649124 6.36604775,3.16717838 L6.36604775,3.19790903 C6.35740605,4.94379451 4.94400903,6.35836508 3.19838688,6.36604775" id="Fill-19" fill="url(#linearGradient-15)" mask="url(#mask-14)"></path>
                <path d="M3.18501446,6.36803109 C3.18001446,6.36803109 3.17501446,6.36803109 3.16901446,6.36803109 L3.20101446,6.36803109 C3.19601446,6.36803109 3.19101446,6.36803109 3.18501446,6.36803109 M6.36803834,3.20052705 L6.36803834,3.16852705 C6.36803834,3.17452705 6.36803834,3.17952705 6.36803834,3.18452705 C6.36803834,3.19052705 6.36803834,3.19552705 6.36803834,3.20052705" id="Fill-18" fill="#FFFFFF" mask="url(#mask-14)"></path>
            </g>
            <g id="Group-25" transform="translate(31.564987, 61.803714)">
                <mask id="mask-17" fill="white">
                    <use xlink:href="#path-16"></use>
                </mask>
                <g id="Clip-24"></g>
                <path d="M1.33638977,2.65251989 L1.31613012,2.65251989 C0.588183286,2.64691874 0,2.05525016 0,1.32616659 C0,0.593535633 0.593598306,0 1.32621327,0 C2.05854814,0 2.65251989,0.593535633 2.65251989,1.32616659 C2.65251989,2.05525016 2.06405652,2.64691874 1.33638977,2.65251989" id="Fill-23" fill="url(#linearGradient-18)" mask="url(#mask-17)"></path>
                <path d="M1.32952873,2.65584361 C1.32592873,2.65584361 1.32232873,2.65584361 1.31872873,2.65584361 L1.34042873,2.65584361 C1.33682873,2.65584361 1.33322873,2.65584361 1.32952873,2.65584361" id="Fill-22" fill="#FFFFFF" mask="url(#mask-17)"></path>
            </g>
            <g id="Group-28" transform="translate(62.864721, 80.901857)">
                <mask id="mask-20" fill="white">
                    <use xlink:href="#path-19"></use>
                </mask>
                <g id="Clip-27"></g>
                <polygon id="Fill-26" fill="url(#linearGradient-21)" mask="url(#mask-20)" points="0 5.30503979 5.30503979 5.30503979 5.30503979 0 0 0"></polygon>
            </g>
            <g id="Group-33" transform="translate(7.957560, 9.283820)">
                <mask id="mask-23" fill="white">
                    <use xlink:href="#path-22"></use>
                </mask>
                <g id="Clip-32"></g>
                <path d="M42.0770596,82.2281167 C18.8383724,82.2281167 0,63.5115199 0,40.4226115 C0,21.0308733 13.2897644,4.72529835 31.3129432,0 L31.3128438,0 C21.2651548,4.05015691 14.9567538,13.4719969 12.5786085,23.4730236 C11.9345896,23.2003779 11.2258207,23.049479 10.4816433,23.049479 C7.52313497,23.049479 5.12489823,25.4324358 5.12489823,28.3717518 C5.12489823,31.3112655 7.52313497,33.6939258 10.4816433,33.6939258 C10.8363261,33.6939258 11.1826541,33.6595363 11.5182401,33.5940183 C11.6435627,38.4741684 12.610337,43.1464989 14.2798129,47.4722661 C12.8141354,48.0372228 11.7752509,49.4517389 11.7752509,51.1077724 C11.7752509,53.2611692 13.5316569,55.0060422 15.699141,55.0060422 C16.4500819,55.0060422 17.1516895,54.7965428 17.7483642,54.4329823 C20.6369505,59.0833747 24.4169185,63.1290847 28.8518463,66.3348207 C28.1773919,66.8862389 27.7470182,67.7212719 27.7470182,68.6571017 C27.7470182,70.3162974 29.1004027,71.661244 30.770376,71.661244 C32.1942793,71.661244 33.3882256,70.6839096 33.7090912,69.3666327 C39.6273014,72.5229585 46.3937266,74.3135854 53.5818723,74.3135854 C54.0762003,74.3135854 54.5635659,74.3046915 55.0459584,74.2849274 C55.3075445,75.6328386 56.501093,76.6497013 57.9343458,76.6497013 C59.5585663,76.6497013 60.8754481,75.3413182 60.8754481,73.7265918 C60.8754481,73.6643349 60.8734589,73.6030662 60.8694804,73.5417975 C67.1445615,72.1464525 72.2042124,68.9446693 76.3925729,64.622262 C68.7657982,75.2770849 56.2385123,82.2281167 42.0770596,82.2281167" id="Fill-31" fill="url(#linearGradient-24)" mask="url(#mask-23)"></path>
                <path d="M31.3131126,0.000589765658 L31.3130126,0.000589765658 C31.3132126,0.000589765658 31.3132126,0.000589765658 31.3132126,0.000589765658" id="Fill-29" fill="#FFFFFF" mask="url(#mask-23)"></path>
                <line x1="76.3928418" y1="64.6228518" x2="76.3928418" y2="64.6228518" id="Fill-30" fill="#FFFFFF" mask="url(#mask-23)"></line>
            </g>
            <g id="Group-37" transform="translate(26.790451, 44.031830)">
                <mask id="mask-26" fill="white">
                    <use xlink:href="#path-25"></use>
                </mask>
                <g id="Clip-36"></g>
                <path d="M2.26856795,4.50928382 L2.24061384,4.50928382 C1.00634801,4.5018367 0.0075496505,3.50269807 0,2.26861802 L0,2.24046177 C0.0075496505,1.00179103 1.01399968,0 2.2545909,0 C3.49997717,0 4.50928382,1.00934017 4.50928382,2.25453989 C4.50928382,3.49514893 3.50752682,4.5018367 2.26856795,4.50928382" id="Fill-35" fill="url(#linearGradient-27)" mask="url(#mask-26)"></path>
                <path d="M2.2545909,4.50938584 C2.24999989,4.50938584 2.24530687,4.50938584 2.24061384,4.50928382 L2.26856795,4.50928382 C2.26397695,4.50938584 2.25928392,4.50938584 2.2545909,4.50938584 M-1.42913025e-14,2.26861802 C-1.42913025e-14,2.26382329 -0.000102022304,2.2592326 -0.000102022304,2.25453989 C-0.000102022304,2.24984719 -1.42913025e-14,2.24515448 -1.42913025e-14,2.24046177 L-1.42913025e-14,2.26861802" id="Fill-34" fill="#FFFFFF" mask="url(#mask-26)"></path>
            </g>
            <g id="stars" transform="translate(40.318302, 8.753316)" fill="#FFFFFF">
                <polyline id="Fill-38" points="11.4188809 14.9104907 17.0115957 16.1893696 11.1976329 17.6906103 9.92372019 23.3063402 8.42855944 17.4682485 2.83594391 16.1893696 8.64980752 14.6883282 9.92372019 9.07249867 11.4188809 14.9104907"></polyline>
                <polyline id="Fill-39" points="40.6176737 37.7208008 43.4601658 38.3708503 40.5045693 39.1337742 39.8576916 41.9883132 39.0977094 39.0208001 36.2552173 38.3708503 39.2098216 37.6078267 39.8576916 34.7531881 40.6176737 37.7208008"></polyline>
                <polyline id="Fill-40" points="16.5839817 50.4278979 19.2409429 51.0356069 16.4788144 51.7485194 15.8736067 54.4162626 15.1632317 51.6430171 12.5072627 51.0356069 15.2693911 50.3224952 15.8736067 47.654752 16.5839817 50.4278979"></polyline>
                <path d="M28.3448546,8.72749924 C28.9510545,8.72749924 29.4411735,9.22034133 29.4411735,9.8284489 C29.4411735,10.4364568 28.9510545,10.9292989 28.3448546,10.9292989 C27.7396469,10.9292989 27.2495278,10.4364568 27.2495278,9.8284489 C27.2495278,9.22034133 27.7396469,8.72749924 28.3448546,8.72749924" id="Fill-41"></path>
                <path d="M4.69710652,35.3048086 C5.64877087,35.3048086 6.41986505,36.0790897 6.41986505,37.0345877 C6.41986505,37.9900857 5.64877087,38.7646657 4.69710652,38.7646657 C3.74564059,38.7646657 2.97424876,37.9900857 2.97424876,37.0345877 C2.97424876,36.0790897 3.74564059,35.3048086 4.69710652,35.3048086" id="Fill-42"></path>
                <path d="M30.7726306,44.6623328 C31.3778383,44.6623328 31.8689495,45.1549756 31.8689495,45.7630832 C31.8689495,46.3711908 31.3778383,46.8638336 30.7726306,46.8638336 C30.1674228,46.8638336 29.6763116,46.3711908 29.6763116,45.7630832 C29.6763116,45.1549756 30.1674228,44.6623328 30.7726306,44.6623328" id="Fill-43"></path>
                <path d="M40.7962596,23.7483738 C41.0978713,23.7483738 41.3429309,23.9939481 41.3429309,24.2971052 C41.3429309,24.5999635 41.0978713,24.8455378 40.7962596,24.8455378 C40.4946479,24.8455378 40.2505805,24.5999635 40.2505805,24.2971052 C40.2505805,23.9939481 40.4946479,23.7483738 40.7962596,23.7483738" id="Fill-44"></path>
                <path d="M22.629114,33.4966251 C23.2343218,33.4966251 23.725433,33.9894671 23.725433,34.5974751 C23.725433,35.205483 23.2343218,35.6983251 22.629114,35.6983251 C22.0239063,35.6983251 21.5327951,35.205483 21.5327951,34.5974751 C21.5327951,33.9894671 22.0239063,33.4966251 22.629114,33.4966251" id="Fill-45"></path>
                <path d="M47.3741732,49.384033 C47.6757849,49.384033 47.9198523,49.6296072 47.9198523,49.9324655 C47.9198523,50.2356227 47.6757849,50.4810973 47.3741732,50.4810973 C47.0725615,50.4810973 46.8275019,50.2356227 46.8275019,49.9324655 C46.8275019,49.6296072 47.0725615,49.384033 47.3741732,49.384033" id="Fill-46"></path>
                <path d="M28.8935101,22.6496159 C29.1951219,22.6496159 29.4401814,22.8950905 29.4401814,23.1980484 C29.4401814,23.5010064 29.1951219,23.7466802 28.8935101,23.7466802 C28.5918984,23.7466802 28.3468389,23.5010064 28.3468389,23.1980484 C28.3468389,22.8950905 28.5918984,22.6496159 28.8935101,22.6496159" id="Fill-47"></path>
                <path d="M34.5318635,59.6020135 C35.1370712,59.6020135 35.6281824,60.0951544 35.6281824,60.7028635 C35.6281824,61.3105726 35.1370712,61.8037135 34.5318635,61.8037135 C33.9266558,61.8037135 33.4355446,61.3105726 33.4355446,60.7028635 C33.4355446,60.0951544 33.9266558,59.6020135 34.5318635,59.6020135" id="Fill-48"></path>
                <path d="M50.1164587,32.4760723 C50.4180704,32.4760723 50.66313,32.7218458 50.66313,33.0247041 C50.66313,33.3277616 50.4180704,33.5733359 50.1164587,33.5733359 C49.814847,33.5733359 49.5707796,33.3277616 49.5707796,33.0247041 C49.5707796,32.7218458 49.814847,32.4760723 50.1164587,32.4760723" id="Fill-49"></path>
                <path d="M19.4205209,10.1449557 C19.7221326,10.1449557 19.9662,10.3907292 19.9662,10.6935875 C19.9662,10.9967447 19.7221326,11.2422193 19.4205209,11.2422193 C19.1189092,11.2422193 18.8738496,10.9967447 18.8738496,10.6935875 C18.8738496,10.3907292 19.1189092,10.1449557 19.4205209,10.1449557" id="Fill-50"></path>
                <path d="M11.8226835,0 C12.4278912,0 12.9190024,0.492642844 12.9190024,1.10075041 C12.9190024,1.70885798 12.4278912,2.20160045 11.8226835,2.20160045 C11.2174757,2.20160045 10.7263645,1.70885798 10.7263645,1.10075041 C10.7263645,0.492642844 11.2174757,0 11.8226835,0" id="Fill-51"></path>
                <path d="M18.7131223,24.927429 C19.0147341,24.927429 19.2597936,25.1730033 19.2597936,25.475762 C19.2597936,25.7790187 19.0147341,26.0244934 18.7131223,26.0244934 C18.4115106,26.0244934 18.1674432,25.7790187 18.1674432,25.475762 C18.1674432,25.1730033 18.4115106,24.927429 18.7131223,24.927429" id="Fill-52"></path>
                <path d="M0.546472819,22.725729 C0.848084542,22.725729 1.09254878,22.9713032 1.09254878,23.2744604 C1.09254878,23.5773187 0.848084542,23.8227933 0.546472819,23.8227933 C0.244464239,23.8227933 0,23.5773187 0,23.2744604 C0,22.9713032 0.244464239,22.725729 0.546472819,22.725729" id="Fill-53"></path>
                <path d="M36.0974665,12.6609709 C36.3990782,12.6609709 36.6441377,12.906844 36.6441377,13.2097023 C36.6441377,13.5128595 36.3990782,13.7583341 36.0974665,13.7583341 C35.7958547,13.7583341 35.5517874,13.5128595 35.5517874,13.2097023 C35.5517874,12.906844 35.7958547,12.6609709 36.0974665,12.6609709" id="Fill-54"></path>
                <path d="M25.2910359,57.9522328 C25.5926476,57.9522328 25.8377072,58.1983051 25.8377072,58.5011634 C25.8377072,58.8040217 25.5926476,59.0490978 25.2910359,59.0490978 C24.9894242,59.0490978 24.7453568,58.8040217 24.7453568,58.5011634 C24.7453568,58.1983051 24.9894242,57.9522328 25.2910359,57.9522328" id="Fill-55"></path>
                <path d="M10.2560884,43.6415808 C10.5577001,43.6415808 10.8027596,43.8870554 10.8027596,44.1903122 C10.8027596,44.4931705 10.5577001,44.7387447 10.2560884,44.7387447 C9.95447665,44.7387447 9.70941712,44.4931705 9.70941712,44.1903122 C9.70941712,43.8870554 9.95447665,43.6415808 10.2560884,43.6415808" id="Fill-56"></path>
            </g>
        </g>
    </g>
</svg>